<?xml version="1.0" standalone="no"?>
<!DOCTYPE svg PUBLIC "-//W3C//DTD SVG 20010904//EN"
 "http://www.w3.org/TR/2001/REC-SVG-20010904/DTD/svg10.dtd">
<svg version="1.0" xmlns="http://www.w3.org/2000/svg"
 width="571.000000pt" height="289.000000pt" viewBox="0 0 571.000000 289.000000"
 preserveAspectRatio="xMidYMid meet">

<g transform="translate(0.000000,289.000000) scale(0.100000,-0.100000)"
fill="#000000" stroke="none">
<path d="M1549 2369 c-209 -18 -394 -121 -470 -261 -32 -59 -34 -69 -34 -158
0 -87 3 -102 31 -158 l31 -62 -53 -30 c-104 -58 -172 -180 -161 -288 7 -70 48
-154 95 -192 20 -16 34 -31 31 -32 -2 -2 -30 -21 -62 -42 -162 -109 -242 -287
-193 -433 54 -163 266 -247 472 -187 19 5 22 1 29 -42 15 -99 76 -171 169
-199 97 -29 172 -14 243 49 43 38 83 103 83 136 0 8 -10 -5 -21 -30 -25 -54
-42 -75 -94 -109 -35 -23 -50 -26 -120 -26 -62 0 -89 5 -120 22 -69 37 -108
93 -118 170 -5 40 -3 44 28 63 57 35 115 106 115 140 0 27 -3 30 -32 30 -42 0
-104 -65 -121 -127 -17 -65 -45 -78 -177 -78 -95 0 -110 3 -162 28 -67 33
-123 94 -140 151 -7 23 -12 71 -12 107 0 118 77 237 208 324 l56 38 60 -13
c39 -8 100 -11 173 -7 95 4 123 10 187 36 89 37 94 37 162 10 65 -25 62 -23
48 -48 -6 -12 -7 -21 -2 -21 4 0 8 -28 7 -62 0 -35 4 -75 8 -89 13 -42 -16
-44 -68 -5 -59 45 -118 67 -206 74 -116 11 -213 -3 -294 -42 -92 -43 -133 -79
-161 -141 -27 -57 -30 -101 -10 -150 35 -82 173 -96 249 -24 l32 31 -39 -29
c-34 -24 -49 -28 -107 -28 -61 0 -71 3 -98 29 -25 24 -31 38 -31 73 0 78 42
128 146 174 91 41 258 33 356 -17 58 -30 67 -46 39 -75 -38 -41 -22 -41 24 -1
25 22 74 52 110 67 l64 28 36 -31 c47 -42 83 -60 152 -75 l58 -13 3 -49 c4
-61 -4 -95 -23 -95 -8 0 -15 5 -15 10 0 6 -7 10 -15 10 -8 0 -15 -9 -15 -20 0
-15 7 -20 25 -20 36 0 56 38 56 104 l0 56 33 0 c60 0 149 21 218 52 38 17 72
28 76 24 16 -16 5 -131 -15 -171 -34 -65 -117 -133 -139 -114 -16 13 -55 -6
-49 -24 9 -23 -74 -47 -166 -47 -139 0 -145 3 -165 69 -12 41 -28 68 -64 103
-26 27 -53 48 -60 48 -7 0 0 -10 16 -22 40 -31 61 -56 84 -100 29 -54 27 -72
-7 -64 -26 5 -26 5 5 -11 25 -13 32 -23 33 -47 l2 -31 4 28 c4 25 8 28 31 23
89 -16 181 -14 307 8 11 2 26 4 33 5 6 0 12 8 12 16 0 8 5 15 10 15 6 0 34 24
64 54 69 69 91 130 83 225 l-5 66 53 55 c163 172 165 415 4 585 -49 52 -170
125 -206 125 -8 0 -13 3 -11 8 54 107 69 146 74 200 31 294 -270 506 -667 471z
m271 -45 c164 -37 326 -159 366 -274 33 -98 20 -216 -33 -298 l-28 -43 -135
-2 c-129 -2 -138 -3 -204 -35 -37 -17 -70 -32 -72 -32 -2 0 -4 29 -4 65 l0 65
53 0 c29 0 75 7 102 16 66 23 140 95 155 153 6 23 9 45 7 48 -3 2 -8 -9 -12
-26 -8 -39 -55 -78 -102 -87 -20 -4 -63 -2 -95 4 -57 11 -128 45 -128 62 0 6
50 50 99 87 2 2 2 5 0 7 -3 3 -23 -9 -45 -27 -22 -18 -101 -65 -176 -105 -192
-104 -271 -188 -285 -300 -15 -131 79 -224 213 -208 30 3 85 20 121 36 36 17
67 30 68 30 2 0 4 -58 4 -130 0 -71 -2 -130 -7 -130 -4 1 -30 9 -59 19 l-52
18 54 53 c30 30 55 59 55 64 0 6 -24 -13 -52 -41 -71 -68 -80 -72 -141 -60
-29 5 -106 7 -172 5 -94 -4 -136 -10 -194 -30 l-74 -26 -43 40 c-56 51 -79
112 -78 203 1 88 27 147 94 209 63 59 87 65 136 31 49 -33 107 -32 112 2 5 33
-40 58 -100 55 l-49 -2 -31 67 c-64 136 -36 279 72 376 157 141 416 196 660
141z m-224 -499 c36 -25 72 -45 80 -45 11 0 14 -17 14 -79 0 -92 -13 -112 -57
-92 -14 6 -28 9 -31 6 -4 -3 4 -8 16 -12 25 -6 28 -22 10 -43 -7 -8 -2 -5 12
6 36 31 50 21 50 -36 0 -61 -18 -74 -105 -74 -148 1 -217 111 -170 271 13 45
87 143 108 143 4 0 36 -20 73 -45z m-368 -107 c21 -21 14 -38 -16 -38 -31 0
-75 27 -67 41 9 13 69 11 83 -3z m866 -27 c17 -7 16 -9 -12 -30 -17 -12 -57
-34 -89 -48 -51 -24 -70 -27 -168 -28 -93 0 -110 2 -113 16 -4 21 37 47 118
76 50 17 86 22 155 22 50 0 99 -4 109 -8z m125 -44 c66 -33 144 -108 179 -175
42 -79 59 -185 43 -265 -15 -70 -69 -178 -115 -232 l-35 -40 -17 25 c-10 14
-35 41 -56 61 l-38 36 30 28 c35 34 80 119 80 151 0 13 5 26 10 29 6 3 10 17
10 31 0 13 -4 24 -10 24 -5 0 -10 8 -10 19 0 24 -27 89 -52 124 -20 28 -112
87 -137 87 -7 0 11 -13 40 -28 89 -46 158 -162 127 -211 -10 -16 -10 -23 0
-33 30 -30 -2 -119 -65 -180 -36 -35 -40 -36 -82 -28 -56 10 -95 0 -99 -27 -4
-29 36 -37 93 -18 25 9 54 13 65 10 28 -9 92 -84 88 -103 -2 -9 -34 -32 -73
-51 -57 -29 -83 -36 -151 -39 l-82 -4 -12 38 c-7 22 -23 60 -36 86 -13 26 -24
51 -24 55 0 4 25 21 55 37 110 57 177 135 191 224 9 56 -18 140 -58 181 -79
81 -171 91 -345 36 -21 -7 -23 -4 -23 34 l0 41 69 -6 c102 -10 205 16 284 71
68 48 81 49 156 12z m-315 -197 c73 -51 105 -140 85 -240 -13 -65 -48 -131
-85 -157 l-26 -19 -64 63 c-35 35 -69 63 -74 63 -6 0 19 -28 55 -61 36 -34 65
-65 65 -69 0 -9 -122 -70 -139 -70 -4 0 -14 20 -21 45 -14 49 -6 113 14 121 7
3 12 16 11 29 -8 67 135 125 186 74 19 -19 19 -22 5 -38 -18 -20 -6 -44 17
-35 10 4 17 17 17 34 0 76 -121 94 -201 31 l-40 -33 3 114 c2 62 7 122 12 133
6 16 6 17 -3 5 -9 -13 -11 -11 -11 7 0 27 19 33 98 29 45 -3 72 -10 96 -26z
m-430 -218 l40 -7 -30 -14 c-95 -44 -233 -61 -329 -41 l-59 12 28 15 c67 35
248 53 350 35z m656 -181 c0 -11 -25 -21 -56 -21 -15 0 -24 6 -24 15 0 11 11
15 40 15 22 0 40 -4 40 -9z m-226 -93 c14 -29 29 -68 32 -87 l7 -34 -39 7
c-57 11 -129 44 -155 72 -12 13 -21 26 -18 28 11 10 125 65 136 66 6 0 23 -24
37 -52z m-486 -262 c3 -12 -17 -39 -59 -79 -68 -66 -82 -64 -54 8 28 74 104
121 113 71z"/>
<path d="M1505 2218 c-11 -6 -24 -17 -28 -25 -5 -7 -12 -11 -17 -8 -8 5 -80
-30 -90 -44 -3 -4 -22 -20 -43 -36 -68 -50 -108 -145 -89 -210 8 -26 9 -22 9
25 -1 37 6 68 21 97 22 42 86 103 109 103 7 0 13 4 13 9 0 13 81 30 112 24 14
-3 34 0 45 6 16 9 16 10 -7 11 l-25 1 23 10 c36 14 188 2 236 -19 57 -26 96
-74 96 -119 0 -26 -5 -36 -20 -40 -22 -6 -26 -18 -10 -28 38 -24 54 77 21 131
-21 34 -145 102 -175 95 -5 -1 -16 1 -25 5 -26 11 -71 12 -77 3 -3 -5 -17 -9
-31 -9 -21 0 -24 2 -13 15 16 19 -4 20 -35 3z"/>
<path d="M1115 1560 c-54 -28 -78 -63 -83 -125 -4 -45 -1 -55 24 -84 36 -43
80 -61 146 -61 51 0 129 27 142 48 3 5 -11 1 -30 -9 -81 -41 -173 -36 -228 11
-58 51 -57 128 1 186 41 41 101 49 110 14 7 -26 43 -27 43 0 0 42 -62 52 -125
20z"/>
<path d="M4501 1869 c-43 -8 -100 -44 -134 -83 -49 -58 -51 -74 -57 -401 -5
-330 -6 -331 -58 -387 -31 -33 -22 -36 21 -6 59 40 89 73 113 123 23 49 24 57
24 329 0 303 5 338 51 382 40 38 132 46 169 15 23 -19 24 -20 5 -21 -37 0 -65
-28 -65 -65 0 -24 7 -39 22 -49 49 -35 108 -7 108 51 0 46 -30 87 -80 107 -44
18 -54 18 -119 5z"/>
<path d="M3467 1792 c-24 -26 -21 -68 5 -86 30 -21 54 -20 78 4 26 26 25 50 0
78 -25 27 -61 28 -83 4z"/>
<path d="M2729 1431 c-130 -131 -160 -186 -167 -302 -6 -106 12 -152 84 -218
49 -45 54 -53 44 -72 -7 -11 -10 -22 -8 -23 10 -9 208 221 236 275 32 60 34
69 30 144 -5 97 -28 147 -94 203 l-47 40 17 27 c10 15 16 28 14 29 -2 2 -51
-45 -109 -103z m33 -59 c81 -53 118 -159 97 -275 -20 -114 -50 -143 -116 -110
-44 21 -80 84 -89 154 -12 91 31 249 68 249 7 0 25 -8 40 -18z"/>
<path d="M3200 1444 c-52 -58 -100 -123 -125 -170 -37 -71 -40 -82 -40 -158 1
-62 6 -90 22 -121 23 -45 59 -86 88 -102 17 -10 18 -15 7 -38 -11 -23 -7 -22
40 17 85 71 169 151 163 156 -3 3 -15 -4 -28 -15 -42 -39 -63 -45 -100 -29
-74 31 -114 127 -101 246 6 67 36 150 52 150 5 0 15 -6 21 -14 6 -8 25 -19 41
-26 25 -11 34 -9 64 10 35 21 90 79 83 87 -2 2 -15 0 -28 -5 -27 -10 -63 0
-91 25 -17 15 -16 17 3 45 41 58 12 34 -71 -58z"/>
<path d="M3909 1412 c-136 -136 -169 -191 -177 -292 -5 -79 8 -132 48 -191 35
-52 37 -70 10 -94 -11 -10 -20 -23 -20 -29 1 -6 13 3 28 20 15 17 59 55 97 86
39 30 76 62 84 71 19 24 28 21 34 -12 4 -16 20 -46 38 -65 30 -35 31 -37 15
-61 -28 -43 -17 -41 32 6 57 56 112 94 112 79 0 -7 6 -8 19 0 36 19 87 12 120
-16 48 -40 55 -59 34 -91 -12 -20 -1 -13 37 22 30 28 75 67 99 88 45 37 49 49
8 23 -20 -14 -27 -12 -82 25 -68 46 -87 47 -163 2 -26 -15 -51 -28 -57 -28 -5
-1 -23 -5 -38 -9 -23 -7 -33 -4 -53 15 -35 33 -44 78 -44 222 0 123 1 129 25
152 13 14 29 25 35 25 6 0 8 5 5 10 -3 6 -14 10 -23 10 -10 0 -45 18 -80 41
l-63 41 26 34 c48 62 11 33 -106 -84z m54 -47 l37 -26 0 -154 c0 -151 0 -154
-26 -184 -41 -49 -84 -41 -116 22 -29 57 -34 147 -14 227 16 61 57 140 74 140
4 0 24 -11 45 -25z"/>
<path d="M4850 1505 c-13 -14 -60 -46 -104 -72 -182 -105 -250 -219 -180 -302
39 -46 92 -43 170 8 32 22 66 40 74 41 63 9 100 -22 100 -84 0 -56 -27 -96
-87 -128 l-50 -27 -38 19 c-44 22 -89 25 -132 9 -34 -12 -123 -98 -123 -117 0
-8 12 -1 28 16 38 41 75 49 119 28 31 -15 34 -20 28 -43 l-6 -27 30 30 c17 16
79 57 137 89 59 33 129 81 156 107 44 42 48 51 48 92 0 54 -20 80 -74 94 -48
14 -99 0 -161 -42 -91 -63 -147 -41 -147 60 0 36 7 57 29 87 43 62 51 64 110
27 61 -38 78 -35 153 30 49 43 50 56 2 39 -24 -8 -37 -7 -61 6 -37 19 -37 22
-9 52 12 13 19 25 16 28 -2 3 -15 -6 -28 -20z"/>
<path d="M3520 1467 c-25 -23 -65 -59 -90 -80 -41 -34 -43 -37 -17 -31 21 5
34 1 53 -17 24 -22 24 -24 24 -209 0 -183 1 -188 25 -224 29 -43 30 -49 10
-66 -9 -7 -13 -15 -11 -18 5 -5 171 132 182 150 4 6 -3 5 -14 -1 -33 -18 -59
-13 -81 15 -19 25 -21 40 -21 190 0 153 1 164 20 177 20 14 19 15 -25 41 -25
15 -45 32 -45 37 0 6 9 24 21 41 31 44 19 42 -31 -5z"/>
</g>
</svg>
