<?xml version="1.0" standalone="no"?>
<!DOCTYPE svg PUBLIC "-//W3C//DTD SVG 20010904//EN"
 "http://www.w3.org/TR/2001/REC-SVG-20010904/DTD/svg10.dtd">
<svg version="1.0" xmlns="http://www.w3.org/2000/svg"
 width="237.000000pt" height="242.000000pt" viewBox="0 0 237.000000 242.000000"
 preserveAspectRatio="xMidYMid meet">

<g transform="translate(0.000000,242.000000) scale(0.100000,-0.100000)"
fill="#000000" stroke="none">
<path d="M1134 2239 c-209 -19 -406 -133 -471 -275 -46 -102 -39 -237 18 -330
l18 -31 -60 -39 c-103 -66 -154 -154 -152 -265 1 -84 26 -142 84 -197 23 -23
41 -43 38 -45 -2 -2 -34 -24 -71 -50 -148 -104 -219 -253 -189 -398 37 -176
260 -276 478 -213 18 5 22 1 27 -25 3 -17 9 -44 12 -60 22 -117 205 -204 328
-157 85 33 153 122 164 214 4 40 6 43 31 38 92 -17 123 -16 311 8 39 5 40 5
40 21 0 8 4 15 9 15 22 0 103 86 127 136 24 48 26 63 22 130 l-5 75 51 54
c211 219 150 555 -122 682 -42 20 -79 38 -81 40 -2 1 11 33 30 70 32 64 34 74
34 168 0 88 -3 107 -27 158 -90 192 -348 302 -644 276z m294 -50 c153 -39 289
-138 341 -248 38 -81 36 -191 -3 -278 -16 -35 -34 -67 -41 -73 -7 -6 -73 -11
-146 -13 -131 -2 -136 -3 -206 -38 l-73 -35 0 68 0 68 53 0 c74 0 137 24 193
73 50 44 75 89 73 134 -1 20 -3 22 -6 8 -21 -97 -91 -132 -212 -106 -47 10
-121 48 -121 62 0 4 25 26 55 49 30 23 55 47 55 53 0 6 -12 -1 -27 -15 -32
-30 -149 -100 -256 -154 -47 -24 -95 -60 -139 -103 -55 -56 -69 -77 -83 -126
-30 -102 5 -194 88 -234 70 -34 138 -26 269 32 l36 16 1 -129 c0 -72 -1 -130
-2 -130 -7 0 -102 33 -106 37 -3 2 19 28 49 58 30 30 51 57 48 61 -4 3 -14 -6
-23 -20 -10 -14 -38 -41 -64 -60 -43 -32 -49 -34 -91 -26 -84 17 -259 11 -335
-11 -117 -33 -118 -33 -155 -3 -81 69 -107 226 -54 332 27 54 102 129 139 138
14 3 36 -4 61 -21 48 -32 107 -32 112 1 5 35 -32 58 -93 56 l-54 -1 -26 53
c-68 140 -44 283 66 387 152 145 428 201 677 138z m-250 -488 c31 -21 67 -42
80 -45 20 -7 22 -13 22 -85 0 -92 -13 -112 -57 -92 -14 6 -28 9 -31 7 -2 -3 8
-10 23 -16 24 -9 26 -12 14 -28 -11 -14 -11 -15 1 -4 8 6 22 12 32 12 15 0 18
-9 18 -54 l0 -54 -44 -11 c-56 -14 -128 -4 -169 23 -18 12 -42 41 -55 66 -42
81 -16 199 61 278 22 23 43 42 44 42 2 0 29 -17 61 -39z m-355 -119 c20 -22
13 -32 -20 -32 -28 0 -75 29 -67 41 10 16 70 10 87 -9z m860 -21 c18 -6 18 -7
0 -23 -27 -25 -112 -65 -163 -78 -25 -6 -83 -10 -130 -8 -70 2 -85 6 -88 20
-4 18 68 60 143 84 43 14 208 17 238 5z m93 -27 c103 -43 198 -137 236 -234
34 -84 32 -212 -4 -305 -26 -64 -108 -185 -126 -185 -4 0 -16 13 -25 30 -10
16 -33 42 -52 56 l-35 26 44 48 c28 32 49 69 61 107 10 32 23 66 29 75 7 12 6
22 -5 35 -9 10 -21 38 -28 63 -23 79 -94 150 -166 165 -23 5 -20 1 15 -15 92
-43 144 -119 143 -207 -1 -29 3 -53 8 -53 21 0 -13 -99 -52 -148 -38 -50 -62
-61 -108 -52 -53 10 -101 -4 -101 -30 0 -27 45 -33 101 -15 47 16 51 16 79 -2
16 -10 41 -34 55 -53 l26 -35 -23 -19 c-51 -42 -131 -70 -214 -74 l-82 -4 -12
38 c-7 22 -23 60 -36 86 -13 26 -24 49 -24 52 0 2 31 22 68 44 87 52 157 126
172 183 26 95 -14 205 -93 257 -38 25 -50 27 -137 27 -76 -1 -105 -5 -142 -22
l-48 -22 0 42 0 42 108 1 c122 1 192 21 265 79 49 39 53 40 103 19z m-296
-206 c31 -16 54 -38 75 -72 26 -43 30 -59 30 -120 -1 -52 -7 -85 -23 -121 -24
-52 -68 -105 -86 -105 -6 1 -45 33 -86 71 l-75 70 32 29 c53 48 139 52 167 7
8 -13 8 -20 -3 -26 -18 -12 -6 -42 13 -35 34 13 25 69 -15 89 -55 29 -130 13
-187 -39 l-23 -21 3 110 c2 61 7 119 12 130 6 16 6 17 -3 5 -9 -12 -11 -10
-11 12 0 30 11 35 85 37 35 1 65 -6 95 -21z m-422 -225 l54 -6 -34 -14 c-107
-47 -236 -63 -332 -43 -66 13 -63 21 19 44 85 25 191 32 293 19z m167 -34 c55
-20 66 -34 43 -57 -8 -8 -9 -12 -1 -12 7 0 11 -20 10 -52 -1 -29 2 -69 6 -89
11 -48 -14 -61 -52 -26 -68 61 -149 87 -277 88 -115 1 -153 -6 -233 -43 -129
-57 -186 -128 -186 -230 0 -49 4 -61 30 -88 39 -40 94 -55 153 -40 48 12 102
44 102 61 0 6 -16 -2 -35 -17 -42 -32 -119 -43 -165 -24 -97 40 -93 164 7 233
71 48 121 62 223 62 110 -1 193 -22 240 -61 l31 -27 -25 -26 c-43 -45 -29 -44
28 3 30 24 80 53 111 65 l56 21 41 -34 c40 -35 141 -76 185 -76 19 0 23 -6 24
-32 5 -93 -8 -131 -35 -109 -17 14 -36 7 -36 -15 0 -19 44 -18 64 1 16 16 30
89 24 121 -3 17 7 20 83 30 63 8 108 21 163 47 l75 36 7 -47 c8 -55 -7 -122
-39 -170 -25 -39 -108 -95 -120 -83 -14 14 -47 0 -47 -19 0 -29 -74 -50 -177
-50 -110 0 -140 10 -149 47 -12 50 -42 99 -83 136 -23 20 -44 37 -49 37 -4 0
11 -17 34 -37 41 -38 70 -84 84 -134 8 -27 7 -27 -18 -18 -25 9 -26 8 -8 -6
11 -8 23 -15 28 -15 15 0 8 -74 -11 -115 -24 -53 -90 -111 -143 -126 -86 -23
-201 5 -255 63 -12 13 -29 40 -38 60 -16 40 -21 118 -6 118 15 0 111 91 126
121 29 56 -10 77 -73 39 -32 -20 -82 -105 -82 -142 0 -22 -50 -38 -141 -45
-148 -11 -272 50 -318 157 -23 52 -30 146 -15 205 20 84 105 190 203 253 53
34 56 34 103 23 61 -14 207 -14 278 -1 29 6 76 21 104 34 64 30 82 31 151 5z
m187 -121 c21 -21 38 -43 38 -49 0 -13 -126 -72 -139 -64 -30 18 -34 151 -5
162 7 2 10 12 7 21 -9 21 47 -18 99 -70z m312 -27 c7 -11 -18 -21 -55 -21 -19
0 -29 5 -29 15 0 11 11 15 39 15 22 0 42 -4 45 -9z m-230 -88 c13 -27 28 -65
34 -85 12 -45 5 -47 -75 -23 -48 14 -133 67 -133 83 0 9 119 70 137 71 7 1 23
-20 37 -46z m-487 -259 c9 -24 -17 -64 -71 -106 -27 -21 -50 -37 -52 -36 -2 2
2 23 8 47 18 73 98 139 115 95z"/>
<path d="M1084 2078 c-15 -13 -33 -23 -39 -24 -24 -3 -55 -17 -55 -25 0 -5 -4
-9 -10 -9 -21 0 -130 -114 -141 -148 -14 -42 -15 -110 -3 -122 5 -5 8 14 6 46
-3 44 1 62 22 97 43 75 138 131 216 129 25 0 52 3 60 8 12 8 11 10 -5 10 -17
0 -17 2 -5 10 21 14 183 3 228 -15 48 -21 81 -52 99 -93 17 -40 9 -72 -19 -72
-11 0 -18 -5 -15 -12 7 -22 31 -14 45 15 27 56 -8 122 -86 161 -57 29 -193 59
-206 45 -6 -5 -21 -9 -35 -9 -25 1 -25 1 -7 15 20 15 19 15 -1 15 -11 0 -33
-10 -49 -22z"/>
<path d="M720 1439 c-87 -35 -125 -138 -77 -210 30 -45 80 -69 145 -69 53 0
152 33 152 51 0 5 -15 -1 -33 -11 -19 -11 -60 -23 -93 -26 -50 -5 -67 -3 -102
15 -60 31 -76 60 -73 135 2 41 69 106 109 106 21 0 35 -7 42 -20 14 -26 40
-26 40 0 0 35 -56 50 -110 29z"/>
</g>
</svg>
